# xmcd
#
# Track frame offsets: 
#        150
#        12147
#        33065
#        53075
#        73635
#        87442
#        102212
#        121342
#        148680
#        169350
#        191985
#        212060
#
# Disc length: 3126 seconds
#
# Revision: 1
# Processed by: cddbd v1.5.2PL0 Copyright (c) Steve Scherf et al.
# Submitted via: ExactAudioCopyFreeDBPlugin 1.0
#
DISCID=a70c340c
DTITLE=Casiopea - Casiopea Perfect Live II
DYEAR=1988
DGENRE=Fusion
TTITLE0=Conjunction
TTITLE1=Looking Up
TTITLE2=Street Performer
TTITLE3=Zoom
TTITLE4=Deperture
TTITLE5=Keepers
TTITLE6=Samba Mania
TTITLE7=Galactic Funk
TTITLE8=Something's Wrong (Change It)
TTITLE9=Choose Me
TTITLE10=Mi Senora
TTITLE11=Sun
EXTD=
EXTT0=
EXTT1=
EXTT2=
EXTT3=
EXTT4=
EXTT5=
EXTT6=
EXTT7=
EXTT8=
EXTT9=
EXTT10=
EXTT11=
PLAYORDER=
